<svg xmlns="http://www.w3.org/2000/svg" viewBox="0 0 80 100" fill="none" x="0px" y="0px"><path fill-rule="evenodd" clip-rule="evenodd" d="M6.58269 20.47C5.63402 20.1193 4.64819 19.8434 3.63225 19.6493C3.55766 19.6351 3.48291 19.6213 3.40799 19.6079C2.72924 19.4868 2.72924 18.5132 3.40799 18.3921C3.48291 18.3787 3.55766 18.3649 3.63225 18.3507C4.64819 18.1566 5.63402 17.8807 6.58269 17.53C7.15042 17.3201 7.70485 17.0835 8.24445 16.8215C11.9813 15.0076 15.0076 11.9813 16.8216 8.24444C17.0835 7.70484 17.3202 7.15042 17.53 6.58268C17.8807 5.63401 18.1566 4.64818 18.3507 3.63224C18.3649 3.55765 18.3787 3.4829 18.3921 3.40798C18.5132 2.72923 19.4868 2.72923 19.6079 3.40798C19.6213 3.4829 19.6351 3.55765 19.6493 3.63224C19.8434 4.64818 20.1193 5.63401 20.47 6.58268C20.6799 7.15041 20.9165 7.70484 21.1785 8.24444C22.9924 11.9813 26.0187 15.0076 29.7556 16.8215C30.2952 17.0835 30.8496 17.3201 31.4173 17.53C32.366 17.8807 33.3518 18.1566 34.3678 18.3507C34.4424 18.3649 34.5171 18.3787 34.592 18.3921C35.2708 18.5132 35.2708 19.4868 34.592 19.6079C34.5171 19.6213 34.4424 19.6351 34.3678 19.6493C33.3518 19.8434 32.366 20.1193 31.4173 20.47C30.8496 20.6799 30.2952 20.9165 29.7556 21.1785C26.0187 22.9924 22.9924 26.0187 21.1785 29.7556C20.9165 30.2952 20.6799 30.8496 20.47 31.4173C20.1193 32.366 19.8434 33.3518 19.6493 34.3678C19.6351 34.4423 19.6213 34.5171 19.6079 34.592C19.4868 35.2708 18.5132 35.2708 18.3921 34.592C18.3787 34.5171 18.3649 34.4423 18.3507 34.3678C18.1566 33.3518 17.8807 32.366 17.53 31.4173C17.3202 30.8496 17.0835 30.2952 16.8216 29.7556C15.0076 26.0187 11.9813 22.9924 8.24445 21.1785C7.70485 20.9165 7.15043 20.6799 6.58269 20.47ZM29.2633 44.5889C28.5998 44.4101 27.9271 44.2532 27.2459 44.119C27.1394 44.0981 27.0328 44.0777 26.926 44.0578L26.8936 44.0518L26.8498 44.0438C26.7824 44.0315 26.7084 44.0183 26.5604 43.9918L26.5087 43.9826C25.4232 43.7772 25.4232 42.2228 26.5087 42.0174L26.5604 42.0082C26.7084 41.9817 26.7824 41.9685 26.8498 41.9562L26.8936 41.9482L26.926 41.9422C27.0328 41.9223 27.1394 41.9019 27.2458 41.881C27.927 41.7468 28.5998 41.5899 29.2633 41.4111C29.83 41.2584 30.39 41.0896 30.9428 40.9054C39.8864 37.9241 46.9241 30.8864 49.9054 21.9428C50.0896 21.39 50.2584 20.83 50.4111 20.2632C50.5899 19.5998 50.7468 18.927 50.881 18.2458C50.9019 18.1394 50.9223 18.0328 50.9422 17.926L50.9482 17.8936L50.9562 17.8498C50.9684 17.7832 50.9815 17.7101 51.0073 17.5654L51.0082 17.5604L51.0174 17.5087C51.2228 16.4232 52.7772 16.4232 52.9826 17.5087L52.9919 17.5604C53.0183 17.7084 53.0315 17.7824 53.0438 17.8498L53.0518 17.8936L53.0578 17.926C53.0777 18.0328 53.0981 18.1394 53.119 18.2458C53.2532 18.9271 53.4101 19.5998 53.5889 20.2632C53.7416 20.83 53.9104 21.39 54.0946 21.9428C57.0759 30.8864 64.1136 37.9241 73.0572 40.9054C73.61 41.0896 74.17 41.2584 74.7368 41.4111C75.4002 41.5899 76.073 41.7468 76.7542 41.881C76.8606 41.9019 76.9672 41.9223 77.074 41.9422L77.1064 41.9482L77.1502 41.9562C77.2176 41.9685 77.2916 41.9817 77.4396 42.0082L77.4913 42.0174C78.5768 42.2228 78.5768 43.7772 77.4913 43.9826L77.4396 43.9918L77.283 44.0198L77.1502 44.0438L77.1064 44.0518L77.074 44.0578C76.9672 44.0777 76.8606 44.0981 76.7542 44.119C76.073 44.2532 75.4002 44.4101 74.7368 44.5889C74.17 44.7416 73.61 44.9104 73.0572 45.0946C64.1136 48.0759 57.0759 55.1136 54.0946 64.0572C53.9104 64.61 53.7416 65.17 53.5889 65.7368C53.4101 66.4002 53.2532 67.073 53.119 67.7542C53.0981 67.8606 53.0777 67.9672 53.0578 68.074L53.0518 68.1064L53.0438 68.1502L53.0259 68.2488L52.9929 68.4339L52.9826 68.4913C52.7772 69.5768 51.2228 69.5768 51.0174 68.4913L51.0082 68.4396C50.9818 68.2919 50.9685 68.2175 50.9562 68.1502L50.9482 68.1064L50.9422 68.074C50.9223 67.9672 50.9019 67.8606 50.881 67.7542C50.7468 67.0729 50.5899 66.4002 50.4111 65.7368C50.2584 65.17 50.0896 64.61 49.9054 64.0572C46.9241 55.1136 39.8864 48.0759 30.9428 45.0946C30.39 44.9104 29.83 44.7416 29.2633 44.5889ZM14.2941 65.4101C15.435 65.628 16.5157 66.0094 17.5113 66.5291C17.9542 66.7603 18.3802 67.0188 18.7871 67.3026C19.921 68.0931 20.9069 69.0791 21.6975 70.2129C21.9812 70.6199 22.2398 71.0459 22.4709 71.4887C22.9907 72.4843 23.372 73.5651 23.5899 74.706C23.5989 74.7531 23.6077 74.8003 23.6161 74.8476C23.6926 75.2763 24.3075 75.2763 24.384 74.8476C24.3924 74.8003 24.4011 74.7531 24.4101 74.706C24.6281 73.5651 25.0094 72.4843 25.5291 71.4887C25.7603 71.0459 26.0189 70.6199 26.3026 70.2129C27.0931 69.0791 28.0791 68.0931 29.213 67.3026C29.6199 67.0188 30.0459 66.7603 30.4887 66.5291C31.4844 66.0094 32.5651 65.628 33.706 65.4101C33.7531 65.4011 33.8003 65.3924 33.8476 65.3839C34.2763 65.3075 34.2763 64.6925 33.8476 64.6161C33.8003 64.6076 33.7531 64.5989 33.706 64.5899C32.5651 64.372 31.4844 63.9906 30.4887 63.4709C30.0459 63.2397 29.6199 62.9812 29.213 62.6974C28.0791 61.9069 27.0931 60.9209 26.3026 59.7871C26.0189 59.3801 25.7603 58.9541 25.5291 58.5113C25.0094 57.5157 24.6281 56.4349 24.4101 55.294C24.4011 55.2469 24.3924 55.1997 24.384 55.1524C24.3075 54.7237 23.6926 54.7237 23.6161 55.1524C23.6077 55.1997 23.5989 55.2469 23.5899 55.294C23.372 56.4349 22.9907 57.5157 22.4709 58.5113C22.2398 58.9541 21.9812 59.3801 21.6975 59.7871C20.9069 60.9209 19.921 61.9069 18.7871 62.6974C18.3802 62.9812 17.9542 63.2397 17.5113 63.4709C16.5157 63.9906 15.435 64.372 14.2941 64.5899C14.247 64.5989 14.1998 64.6076 14.1524 64.6161C13.7238 64.6925 13.7238 65.3075 14.1524 65.3839C14.1998 65.3924 14.247 65.4011 14.2941 65.4101Z" fill="white"/></svg>